<svg width="24" height="24" viewBox="0 0 24 24" fill="currentColor" xmlns="http://www.w3.org/2000/svg">
  <path fill-rule="evenodd" clip-rule="evenodd" d="M24 12C24 5.37703 18.623 0 12 0C5.37703 0 0 5.37703 0 12C0 18.623 5.37703 24 12 24C18.623 24 24 18.623 24 12ZM8.90775 4.54514C9.70772 4.50862 9.96314 4.5 12 4.5C14.0369 4.5 14.2923 4.50862 15.0922 4.54514C15.8905 4.58156 16.4357 4.70836 16.9128 4.89375C17.406 5.08542 17.8242 5.34188 18.2412 5.75883C18.6582 6.17578 18.9146 6.59405 19.1063 7.08722C19.2916 7.56427 19.4184 8.10947 19.4549 8.90775C19.4914 9.70772 19.5 9.96314 19.5 12C19.5 14.0369 19.4914 14.2923 19.4549 15.0922C19.4184 15.8905 19.2916 16.4357 19.1063 16.9128C18.9146 17.406 18.6582 17.8242 18.2412 18.2412C17.8242 18.6582 17.406 18.9146 16.9128 19.1063C16.4357 19.2916 15.8905 19.4184 15.0922 19.4549C14.2923 19.4914 14.0369 19.5 12 19.5C9.96314 19.5 9.70772 19.4914 8.90775 19.4549C8.10947 19.4184 7.56427 19.2916 7.08717 19.1063C6.594 18.9146 6.17573 18.6582 5.75878 18.2412C5.34183 17.8242 5.08538 17.406 4.8937 16.9128C4.70831 16.4357 4.58156 15.8905 4.54509 15.0922C4.50862 14.2923 4.5 14.0369 4.5 12C4.5 9.96314 4.50862 9.70772 4.54509 8.90775C4.58156 8.10947 4.70831 7.56427 4.8937 7.08722C5.08538 6.59405 5.34183 6.17578 5.75878 5.75883C6.17573 5.34188 6.594 5.08542 7.08717 4.89375C7.56427 4.70836 8.10947 4.58156 8.90775 4.54514ZM15.0307 5.89509C14.2398 5.859 14.0026 5.85136 12 5.85136C9.99741 5.85136 9.76022 5.859 8.96934 5.89509C8.23809 5.92847 7.84102 6.05062 7.57673 6.15333C7.22662 6.28936 6.97678 6.45192 6.71433 6.71438C6.45187 6.97678 6.28936 7.22667 6.15333 7.57673C6.05062 7.84102 5.92842 8.23809 5.89505 8.96934C5.85895 9.76022 5.85136 9.99741 5.85136 12C5.85136 14.0026 5.85895 14.2398 5.89505 15.0307C5.92842 15.7619 6.05062 16.159 6.15333 16.4233C6.28936 16.7734 6.45187 17.0232 6.71433 17.2856C6.97678 17.5481 7.22662 17.7106 7.57673 17.8467C7.84102 17.9494 8.23809 18.0716 8.96934 18.1049C9.76012 18.141 9.99727 18.1486 12 18.1486C14.0027 18.1486 14.2399 18.141 15.0307 18.1049C15.7619 18.0716 16.159 17.9494 16.4233 17.8467C16.7734 17.7106 17.0232 17.5481 17.2856 17.2856C17.5481 17.0232 17.7106 16.7734 17.8467 16.4233C17.9494 16.159 18.0716 15.7619 18.1049 15.0307C18.141 14.2398 18.1486 14.0026 18.1486 12C18.1486 9.99741 18.141 9.76022 18.1049 8.96934C18.0716 8.23809 17.9494 7.84102 17.8467 7.57673C17.7106 7.22667 17.5481 6.97678 17.2856 6.71438C17.0232 6.45192 16.7734 6.28936 16.4233 6.15333C16.159 6.05062 15.7619 5.92847 15.0307 5.89509ZM8.14866 12C8.14866 9.87295 9.87295 8.14866 12 8.14866C14.127 8.14866 15.8513 9.87295 15.8513 12C15.8513 14.127 14.127 15.8513 12 15.8513C9.87295 15.8513 8.14866 14.127 8.14866 12ZM9.50002 12C9.50002 13.3807 10.6193 14.5 12 14.5C13.3807 14.5 14.5 13.3807 14.5 12C14.5 10.6193 13.3807 9.50002 12 9.50002C10.6193 9.50002 9.50002 10.6193 9.50002 12ZM16.0035 8.89645C16.5006 8.89645 16.9035 8.49356 16.9035 7.9965C16.9035 7.49944 16.5006 7.0965 16.0035 7.0965C15.5065 7.0965 15.1035 7.49944 15.1035 7.9965C15.1035 8.49356 15.5065 8.89645 16.0035 8.89645Z" />
</svg>