<svg height="655.359" style="shape-rendering:geometricPrecision;text-rendering:geometricPrecision;image-rendering:optimizeQuality;fill-rule:evenodd;clip-rule:evenodd" viewBox="0 0 6.827 6.827" width="655.359" xml:space="preserve" xmlns="http://www.w3.org/2000/svg"><defs><style>.fil3{fill:#006eb8}.fil2{fill:#009ea2}.fil4{fill:#fffffe}</style></defs><g id="Layer_x0020_1"><path d="M4.16 1.76h1.342c.26 0 .471.212.471.471v2.365c0 .259-.212.47-.47.47H1.323a.472.472 0 0 1-.47-.47V2.23c0-.26.211-.471.47-.471H4.16z" style="fill:#2c2c2c"/><g id="_398970592"><path d="M1.324 1.84h4.178c.215 0 .391.176.391.391v2.365a.392.392 0 0 1-.39.39H1.323a.392.392 0 0 1-.39-.39V2.23c0-.215.175-.391.39-.391z" id="_398940040" style="fill:#e2042b"/><path class="fil2" d="M5.893 4.596V2.23a.392.392 0 0 0-.39-.391H4.24v3.147h1.262a.392.392 0 0 0 .391-.391z" id="_398939968"/><path class="fil3" d="M4.24 1.84H2.587v3.147H4.24V1.84z" id="_398940088"/><g><path class="fil4" d="M1.816 3.382v-.368h-.19v.377c0 .034-.01.06-.028.079a.104.104 0 0 1-.077.028.104.104 0 0 1-.078-.029.107.107 0 0 1-.028-.078v-.377h-.19v.368c0 .03.006.065.018.104a.221.221 0 0 0 .106.124c.024.013.053.021.089.025a.848.848 0 0 0 .098.007.387.387 0 0 0 .133-.02.215.215 0 0 0 .077-.052.223.223 0 0 0 .053-.085.31.31 0 0 0 .017-.103z" id="_398939632"/><path class="fil4" d="M2.403 3.347c0-.059-.013-.103-.04-.13a.146.146 0 0 0-.111-.043.19.19 0 0 0-.09.019.236.236 0 0 0-.072.064v-.073h-.16v.447h.172v-.215c0-.04.007-.068.02-.084a.062.062 0 0 1 .05-.024c.018 0 .033.006.043.018.01.011.016.031.016.06v.245h.172v-.284z" id="_398939344"/><path class="fil4" id="_398939560" d="M2.683 3.13v-.116h-.171v.117z"/><path class="fil4" id="_398939824" d="M2.683 3.631v-.447h-.171v.447z"/><path class="fil4" d="M3.284 3.406a.227.227 0 0 0-.054-.154c-.046-.052-.114-.078-.203-.078a.257.257 0 0 0-.186.066.224.224 0 0 0-.07.169.22.22 0 0 0 .082.178.264.264 0 0 0 .174.055.26.26 0 0 0 .19-.066.225.225 0 0 0 .067-.17zm-.196-.086c.016.02.024.048.024.087 0 .042-.008.072-.024.09a.075.075 0 0 1-.06.03.076.076 0 0 1-.06-.03c-.017-.019-.025-.048-.025-.088 0-.04.008-.069.025-.088a.077.077 0 0 1 .061-.03c.024 0 .043.01.06.03z" id="_398938912"/><path class="fil4" d="M4.476 3.204c0-.06-.017-.107-.051-.14-.035-.033-.086-.05-.156-.05h-.317v.617h.192v-.228h.104c.077 0 .134-.018.172-.053a.19.19 0 0 0 .056-.146zm-.185.006c0 .02-.007.036-.022.049-.015.013-.041.019-.078.019h-.047V3.14h.054c.036 0 .06.007.073.02.014.014.02.03.02.05z" id="_398938816"/><path class="fil4" d="M3.84 3.347c0-.059-.014-.103-.04-.13a.146.146 0 0 0-.112-.043.19.19 0 0 0-.089.019.236.236 0 0 0-.072.064v-.073h-.16v.447h.172v-.215c0-.04.006-.068.019-.084a.062.062 0 0 1 .05-.024c.019 0 .033.006.044.018.01.011.015.031.015.06v.245h.172v-.284z" id="_398938624"/><path class="fil4" d="m5.425 3.662.177-.478h-.17l-.084.298-.092-.298h-.18l.187.447a.103.103 0 0 1-.032.05.08.08 0 0 1-.05.013.274.274 0 0 1-.082-.011l.014.12c.051.006.09.01.114.01.061 0 .106-.014.136-.04a.287.287 0 0 0 .062-.11z" id="_398939008"/><path class="fil4" d="M5.022 3.536V3.34a.193.193 0 0 0-.013-.067.125.125 0 0 0-.034-.054.159.159 0 0 0-.078-.036.708.708 0 0 0-.213-.001.206.206 0 0 0-.064.02.145.145 0 0 0-.05.043.183.183 0 0 0-.027.068l.163.017c.007-.02.016-.033.027-.04a.118.118 0 0 1 .063-.014c.022 0 .037.005.045.013.01.009.014.023.014.044a.558.558 0 0 1-.061.02c-.02.006-.06.015-.125.028-.054.01-.09.027-.11.049a.12.12 0 0 0-.03.084c0 .036.014.067.041.091.028.025.068.038.122.038a.22.22 0 0 0 .172-.065.214.214 0 0 0 .006.028.166.166 0 0 0 .013.026h.16a.22.22 0 0 1-.017-.045.234.234 0 0 1-.004-.05zm-.241-.095a.82.82 0 0 0 .074-.023v.028c0 .022-.004.04-.01.053a.084.084 0 0 1-.036.034.107.107 0 0 1-.053.014c-.018 0-.032-.004-.042-.013a.044.044 0 0 1-.014-.033c0-.012.005-.023.015-.032a.17.17 0 0 1 .066-.028z" id="_398938480"/><path class="fil3" d="M3.088 3.498c.016-.019.024-.05.024-.09 0-.04-.008-.069-.024-.088a.074.074 0 0 0-.059-.028.077.077 0 0 0-.061.029c-.017.02-.025.048-.025.088 0 .04.008.07.024.088.016.02.037.03.061.03.025 0 .045-.01.06-.03z" id="_398938984"/><path class="fil3" d="M4.291 3.21a.068.068 0 0 0-.02-.05c-.012-.013-.037-.02-.073-.02h-.054v.138h.047c.037 0 .063-.006.078-.02a.062.062 0 0 0 .022-.048z" id="_398938336"/><path class="fil2" d="M4.844 3.499a.116.116 0 0 0 .01-.053V3.42a.82.82 0 0 1-.073.022.17.17 0 0 0-.066.028.043.043 0 0 0-.015.032c0 .013.005.024.014.033.01.009.024.013.042.013.019 0 .037-.005.053-.014a.084.084 0 0 0 .035-.034z" id="_398939080"/></g></g></g><path style="fill:none" d="M0 0h6.827v6.827H0z"/></svg>